<?xml version="1.0" encoding="UTF-8" standalone="no"?>
<!-- Created with Inkscape (http://www.inkscape.org/) -->

<svg
   version="1.1"
   id="svg1"
   width="512.19196"
   height="323.97852"
   viewBox="0 0 512.19196 323.97852"
   sodipodi:docname="android-chrome-512x512.png"
   xmlns:inkscape="http://www.inkscape.org/namespaces/inkscape"
   xmlns:sodipodi="http://sodipodi.sourceforge.net/DTD/sodipodi-0.dtd"
   xmlns="http://www.w3.org/2000/svg"
   xmlns:svg="http://www.w3.org/2000/svg">
  <defs
     id="defs1" />
  <sodipodi:namedview
     id="namedview1"
     pagecolor="#505050"
     bordercolor="#eeeeee"
     borderopacity="1"
     inkscape:showpageshadow="0"
     inkscape:pageopacity="0"
     inkscape:pagecheckerboard="0"
     inkscape:deskcolor="#d1d1d1"
     showgrid="false">
    <inkscape:page
       x="0"
       y="0"
       width="512.19196"
       height="323.97852"
       id="page2"
       margin="0"
       bleed="0" />
  </sodipodi:namedview>
  <g
     inkscape:groupmode="layer"
     inkscape:label="Image"
     id="g1"
     transform="translate(0.21274184,-63)">
    <path
       style="fill:#ffffff"
       d="m 216,385.66878 c -5.09285,-2.38097 -7.69916,-4.77625 -9.8219,-9.02663 -1.99355,-3.99168 -2.18655,-5.96183 -2.27778,-23.25168 C 203.8455,343.00071 203.48897,333.375 203.10803,332 c -0.38093,-1.375 -2.02358,-3.175 -3.65032,-4 -2.94369,-1.49289 -2.92592,-1.5014 3.74854,-1.79469 3.68844,-0.16208 9.98844,-0.15157 14,0.0233 7.14543,0.31158 7.22754,0.34503 4.03772,1.64462 -1.94593,0.79281 -3.49037,2.26029 -3.83846,3.64716 -0.32033,1.27633 -0.43012,11.84153 -0.24397,23.47823 l 0.33846,21.15764 3.73531,3.42185 c 2.97116,2.72181 4.56679,3.42184 7.79966,3.42184 5.40408,0 9.27238,-2.1432 12.08639,-6.69636 2.10546,-3.4067 2.35064,-5.16711 2.7153,-19.49596 0.22047,-8.66312 0.0852,-18.27734 -0.30055,-21.36496 -0.6482,-5.18798 -0.96063,-5.72215 -4.11876,-7.0417 -1.87954,-0.78532 -3.41838,-1.75932 -3.41965,-2.16444 -0.001,-0.40512 4.09072,-0.59106 9.0933,-0.41321 9.1893,0.3267 9.74411,0.5773 5.71991,2.58358 -3.2262,1.60844 -3.59962,4.07647 -3.721,24.59305 -0.10312,17.43037 -0.25161,18.80536 -2.56824,23.78144 -2.11693,4.54712 -3.19311,5.6233 -7.74023,7.74023 -5.85156,2.72421 -16.18768,3.29475 -20.78144,1.14711 z M 79.532055,384.11501 c 0.53237,-0.50648 1.856642,-1.08105 2.942828,-1.2768 3.914101,-0.70542 4.494849,-4.18487 4.510375,-27.02311 0.0082,-11.99325 -0.429627,-22.85368 -0.979525,-24.30002 -0.599778,-1.57754 -2.286025,-3.08221 -4.25,-3.79236 L 78.5,326.54548 82,326.02274 c 1.925,-0.28751 13.0625,-0.39319 24.75,-0.23485 l 21.25,0.28788 v 8.46212 c 0,9.17806 -1.19901,10.86761 -3.13253,4.41409 -1.7875,-5.96613 -6.4941,-9.63648 -13.47576,-10.50878 -3.14504,-0.39294 -6.88228,-0.30587 -8.30498,0.19351 -2.56261,0.89948 -2.58937,1.01857 -2.86964,12.7717 l -0.282915,11.86376 4.110525,-0.55134 c 5.0969,-0.68364 7.66299,-2.92156 8.98669,-7.83741 C 115.14547,337.03234 116,339.78355 116,354.44098 116,362.44844 115.65562,369 115.23472,369 c -0.42091,0 -1.53767,-2.1747 -2.48169,-4.83267 -1.83434,-5.16468 -6.44486,-8.75694 -10.29228,-8.01916 -1.79463,0.34413 -1.98459,1.36675 -2.24211,12.07031 -0.274814,11.42239 -0.224873,11.73133 2.14774,13.28593 2.71527,1.77911 10.58933,1.23786 16.23861,-1.11621 3.42647,-1.42782 8.85092,-7.09858 9.87416,-10.32249 0.36059,-1.13614 1.0753,-2.06571 1.58824,-2.06571 1.27627,0 1.10189,4.41083 -0.43487,11 l -1.28273,5.5 -24.89284,0.26795 c -15.193852,0.16354 -24.515701,-0.0909 -23.924895,-0.65294 z M 139,383.87236 c 0,-0.6202 5.24939,-9.9577 11.66532,-20.75 C 167.9019,334.12852 170,330.42702 170,329.01184 c 0,-1.88632 -12.41698,-0.44553 -17.58297,2.04023 -3.13756,1.50972 -4.62434,3.12046 -6.42094,6.95628 -2.72415,5.81618 -5.55315,6.87754 -4.64226,1.74165 0.31703,-1.7875 0.87286,-5.59576 1.23519,-8.46279 l 0.65877,-5.2128 21.47288,-0.2872 c 11.81008,-0.15797 21.69032,0.0655 21.95608,0.4967 0.47401,0.769 -4.18822,9.1559 -21.84365,39.29464 -4.85821,8.2932 -8.8331,15.66811 -8.8331,16.3887 0,1.01984 1.96729,1.19799 8.87809,0.80396 12.57515,-0.71701 16.35852,-2.95439 20.75036,-12.27121 l 3.29971,-7 0.0359,4.60331 c 0.0198,2.53182 -0.25319,7.36932 -0.60654,10.75 L 187.71509,385 H 163.35754 C 145.94778,385 139,384.67835 139,383.87236 Z m 120,0.66929 c 0,-0.35513 1.38213,-1.1275 3.07141,-1.71639 1.73113,-0.60347 3.47662,-2.13649 4,-3.51308 1.29801,-3.41403 1.19743,-45.94134 -0.11446,-48.39262 -0.57368,-1.07193 -2.48618,-2.58063 -4.25,-3.35268 -3.11638,-1.36409 -2.98102,-1.40779 4.79305,-1.54732 27.18073,-0.48785 32.09573,0.28397 39.76323,6.24417 15.75804,12.24926 12.59439,40.3533 -5.62878,50.00278 -3.73907,1.97991 -5.92751,2.22425 -22.88445,2.55505 -10.3125,0.20118 -18.75,0.0752 -18.75,-0.27991 z m 32.79143,-3.53327 c 3.56445,-1.61775 4.75028,-2.92691 7,-7.72804 2.45498,-5.23916 2.70777,-6.85701 2.7,-17.28034 -0.01,-12.89135 -1.14515,-17.39708 -5.68864,-22.57182 -3.54888,-4.04196 -9.87629,-6.17135 -13.47105,-4.53347 L 280,329.95712 v 24.96474 c 0,24.66423 0.0267,24.98347 2.22251,26.52144 2.86323,2.00549 4.33975,1.93838 9.56892,-0.43492 z M 323,384.51342 c 0,-0.26762 1.575,-1.14466 3.5,-1.94897 l 3.5,-1.4624 v -25.5672 -25.56721 l -3.64162,-1.73382 c -3.60862,-1.71811 -3.4478,-1.73835 17.75,-2.23382 11.76539,-0.275 22.66896,-0.27141 24.23015,0.008 2.83095,0.50662 2.83895,0.52995 3,8.75039 0.18057,9.21729 -1.37027,11.14403 -3.18118,3.95225 -1.302,-5.17072 -4.29332,-8.14712 -9.65735,-9.60918 -5.29445,-1.4431 -11.80659,-1.39484 -13.3,0.0986 -0.79174,0.79174 -1.2,5.04444 -1.2,12.5 V 353 h 2.54966 c 4.78534,0 8.29909,-2.68883 9.67352,-7.40249 0.70225,-2.40837 1.72682,-4.42805 2.27682,-4.48818 1.26551,-0.13836 1.36948,27.78749 0.10477,28.14067 -0.49237,0.1375 -1.49574,-1.80949 -2.22971,-4.32665 -1.61265,-5.53062 -3.93906,-7.81606 -8.75103,-8.59694 L 344,355.73832 v 11.97585 c 0,14.71759 0.73234,15.89705 9.19134,14.80311 8.39193,-1.08527 13.19166,-3.88072 17.30609,-10.07936 1.98521,-2.99086 3.8684,-5.43792 4.18486,-5.43792 0.76567,0 -0.50011,9.53187 -1.89232,14.25 L 371.68342,385 H 347.34171 C 333.95377,385 323,384.78104 323,384.51342 Z M 381,384 c 0,-0.55 0.66935,-1 1.48746,-1 2.0184,0 5.57463,-5.9555 8.957,-15 1.54263,-4.125 3.58817,-9.525 4.54566,-12 0.95749,-2.475 4.01413,-10.50022 6.79254,-17.83382 2.77841,-7.3336 5.3384,-13.62057 5.68887,-13.97104 0.97703,-0.97703 2.00786,1.14489 8.16385,16.80486 15.38885,39.14711 16.7487,42 20.01961,42 0.73975,0 1.34501,0.45 1.34501,1 0,0.61728 -5.16667,1 -13.5,1 -8.33333,0 -13.5,-0.38272 -13.5,-1 0,-0.55 1.0699,-1 2.37756,-1 4.38533,0 5.0153,-2.21721 2.55059,-8.97691 l -2.22125,-6.09198 -9.60345,0.28445 L 394.5,368.5 l -1.94854,5.65832 c -2.18808,6.35392 -1.34061,8.84168 3.01197,8.84168 1.27519,0 2.59665,0.45 2.93657,1 0.39465,0.63856 -2.65628,1 -8.44098,1 C 384.68634,385 381,384.59308 381,384 Z m 30.98318,-20.75 c -0.0358,-1.59497 -6.94206,-17.73629 -7.69628,-17.9877 -0.82798,-0.27599 -1.76126,1.60175 -5.23101,10.52472 C 395.8746,363.96816 395.89571,364 404.5,364 c 4.125,0 7.49243,-0.3375 7.48318,-0.75 z M 239.3062,288.64444 c 0.35534,-0.926 2.10383,-6.46771 3.88553,-12.31491 l 3.23947,-10.63127 -2.39843,-1.59249 c -6.46724,-4.2941 -17.13474,-13.11152 -15.91486,-13.15474 0.76015,-0.0269 5.89542,-0.0516 11.41171,-0.0548 5.51629,-0.003 10.4883,-0.31866 11.0489,-0.70103 0.5606,-0.38237 2.53511,-5.77238 4.3878,-11.9778 1.85268,-6.20542 3.67261,-10.93042 4.04427,-10.5 0.37167,0.43042 1.47035,3.48258 2.44151,6.78258 3.34727,11.37392 4.6856,14.96722 5.86494,15.74688 0.65063,0.43013 5.90796,0.71751 11.68296,0.63864 5.775,-0.0789 10.5,0.0967 10.5,0.39019 0,0.29348 -3.9375,3.54799 -8.75,7.23224 -6.24204,4.77864 -8.74494,7.31393 -8.73234,8.84534 0.01,1.18069 1.35972,6.3995 3,11.59735 1.64029,5.19785 2.98234,9.58535 2.98234,9.75 0,1.1685 -2.78765,-0.51629 -9.61791,-5.81282 -4.33515,-3.36171 -8.43532,-6.33129 -9.11149,-6.59909 -0.67618,-0.2678 -4.95118,2.40169 -9.5,5.93219 -10.36798,8.04694 -11.30904,8.6246 -10.4644,6.42352 z M 466,283.27952 c 0,-0.53096 1.54893,-5.84621 3.44207,-11.81168 1.89313,-5.96546 3.25958,-11.14157 3.03654,-11.50245 -0.22304,-0.36088 -4.48279,-3.76323 -9.46613,-7.56077 L 453.95188,245.5 465.62046,245 c 8.95522,-0.38373 11.8625,-0.8488 12.50255,-2 0.45868,-0.825 2.27788,-6.225 4.04265,-12 l 3.20869,-10.5 3.56282,11.02048 c 1.95956,6.06127 3.92689,11.57377 4.37185,12.25 0.54001,0.82069 3.78197,1.22952 9.75,1.22952 8.61185,0 8.94019,0.0828 8.91941,2.25 -0.015,1.56994 -1.68026,3.43835 -5.50945,6.1817 -9.2273,6.61074 -8.96113,5.66868 -5.12882,18.15288 1.84291,6.00348 2.96919,11.06579 2.50284,11.24957 -0.46635,0.18378 -3.6593,-1.88518 -7.09545,-4.59769 -3.43615,-2.71252 -7.46279,-5.71255 -8.94808,-6.66675 l -2.70053,-1.7349 -8.29947,6.24525 c -4.56471,3.43489 -8.86197,6.67716 -9.54947,7.20504 -0.79959,0.61395 -1.25,0.61194 -1.25,-0.006 z M 13.239317,281.41867 c 0.308437,-1.05527 1.73077,-5.86297 3.160739,-10.68378 C 17.830025,265.91408 19,261.33828 19,260.56645 c 0,-0.77183 -1.4625,-2.31021 -3.25,-3.41862 -1.7875,-1.10841 -4.164296,-2.87115 -5.281768,-3.9172 -1.1174725,-1.04605 -3.9778395,-3.31164 -6.356371,-5.03464 L -0.21274184,245.06327 12.108527,244.78163 24.429795,244.5 27.964898,233.25743 c 1.944306,-6.18342 3.811001,-11.24592 4.148212,-11.25 0.33721,-0.004 1.404787,2.58007 2.372393,5.74257 0.967606,3.1625 2.571145,8.225 3.56342,11.25 l 1.804136,5.5 11.986292,0.5 11.986292,0.5 -9.397344,7 c -5.490559,4.08987 -9.403779,7.71912 -9.412822,8.72976 -0.0085,0.95137 0.621715,3.42637 1.400504,5.5 2.677579,7.12941 4.871152,15.31644 4.265932,15.92166 -0.333364,0.33336 -4.6913,-2.43558 -9.684301,-6.1532 l -9.078186,-6.75931 -7.93936,6.15412 c -9.252263,7.1718 -11.570479,8.36442 -10.740749,5.52564 z M 307.41637,278.08333 C 307.18737,277.85417 307,270.99167 307,262.83333 V 248 h 65 65 v 14.98557 14.98557 l -64.58363,0.26443 c -35.521,0.14544 -64.771,0.0769 -65,-0.15224 z M 80,263 v -15 h 65 65 v 15 15 H 145 80 Z M 61.460485,187.36633 c 0.737387,-1.80192 1.860085,-5.50126 5.042823,-16.61633 l 1.503309,-5.25 -2.795973,-2.5 c -1.537785,-1.375 -5.903208,-4.8625 -9.70094,-7.75 L 48.604738,150 H 60.75096 72.897181 l 3.784998,-12.05714 c 4.301402,-13.70216 4.16385,-13.71965 8.314557,1.05714 3.141152,11.18271 2.074855,10.43106 15.604864,11 l 11.89063,0.5 -9.74611,7.32018 C 97.385752,161.84628 93,165.32467 93,165.54994 c 0,0.22527 0.637209,2.10619 1.41602,4.17982 1.821476,4.84979 5.58398,17.3312 5.58398,18.52382 0,0.9121 -8.685196,-5.04481 -12.5,-8.57337 -1.1,-1.01746 -3.192929,-2.47525 -4.650953,-3.23953 -2.540893,-1.33191 -2.976828,-1.1376 -10.5,4.68013 -4.316976,3.33835 -8.704781,6.5292 -9.750677,7.09079 -1.627624,0.87394 -1.791582,0.75215 -1.137885,-0.84527 z M 418,187.49241 c 0,-0.92389 1.39384,-6.16627 3.09742,-11.64972 3.62075,-11.65443 4.19394,-10.27513 -8.04607,-19.36147 L 404.99418,150.5 416.7181,150 l 11.72393,-0.5 3.19965,-9.5 c 1.75981,-5.225 3.23536,-10.2875 3.27899,-11.25 0.18717,-4.12885 2.14283,-1.13089 4.56632,7 1.43441,4.8125 3.09124,9.9875 3.68183,11.5 l 1.07382,2.75 h 12.01077 12.01078 l -7.8821,6.10523 c -4.33515,3.35788 -8.76145,6.72709 -9.83623,7.48713 -1.91968,1.35754 -1.89765,1.56646 1.25,11.85029 1.76228,5.75761 3.20414,11.17759 3.20414,12.04442 0,1.03496 -3.12351,-0.83797 -9.0982,-5.45552 C 440.89779,178.1642 436.48264,175 436.09036,175 c -0.39228,0 -1.58559,0.79085 -2.6518,1.75745 -1.06621,0.9666 -4.97606,4.15535 -8.68856,7.0861 -4.87298,3.84688 -6.75,4.86154 -6.75,3.64886 z M 168,124.16516 c 0,-0.45917 0.86138,-3.49667 1.91419,-6.75 1.0528,-3.25334 2.59466,-8.24774 3.42635,-11.09867 l 1.51217,-5.18351 -9.67636,-7.316491 L 155.5,86.5 l 12,-0.5 12,-0.5 2.68163,-8 c 1.47489,-4.4 2.95778,-9.4625 3.29531,-11.25 0.33753,-1.7875 0.98687,-3.25 1.44297,-3.25 0.45611,0 1.83218,3.2625 3.05794,7.25 1.22576,3.9875 2.78094,9.05 3.45596,11.25 l 1.2273,4 11.85478,0.5 11.85478,0.5 -9.18534,7.250261 c -5.05193,3.987643 -9.1802,7.587639 -9.17393,7.999999 0.006,0.41236 1.35627,5.21051 3,10.66255 1.64373,5.45205 2.9886,10.52645 2.9886,11.27645 0,0.75372 -3.87,-1.55544 -8.6525,-5.16281 C 192.58863,114.9369 188.04582,112 187.25237,112 c -0.79345,0 -5.232,2.925 -9.86344,6.5 C 168.77631,125.14806 168,125.61648 168,124.16516 Z m 143,0.15049 c 0,-0.5029 1.34205,-5.16716 2.98234,-10.36501 1.64028,-5.19785 2.99028,-10.36575 3,-11.48422 0.0123,-1.41807 -2.91575,-4.217787 -9.67407,-9.25 L 297.61654,86 h 12.17831 12.17831 l 1.45051,-3.471568 c 0.79779,-1.909363 2.48618,-7.084363 3.75199,-11.5 C 328.44147,66.612794 329.75371,63 330.09176,63 c 0.51657,0 2.49488,5.810479 6.80947,20 0.74521,2.450786 1.00099,2.509843 12.99361,3 l 12.23344,0.5 -9.58845,7 c -10.96706,8.00645 -10.51381,6.31151 -5.74937,21.5 1.63901,5.225 2.84263,9.65153 2.67471,9.83674 -0.16792,0.1852 -4.2349,-2.6273 -9.03774,-6.25 C 335.6246,114.96403 331.0586,112 330.28078,112 c -1.41227,0 -6.55611,3.44895 -11.28078,7.56378 -3.74146,3.25853 -8,5.78803 -8,4.75187 z"
       id="path1"
       inkscape:export-filename="logo-white.svg"
       inkscape:export-xdpi="94.717148"
       inkscape:export-ydpi="94.717148"
       sodipodi:nodetypes="sssssscssscsssssscsssssssssssscsscssssscsssssssssssscssssssssscssssssccscsssssssssssssscsscssssscccsssssssscsssssscssssscssssssssssssssscccsssssssssssscsscsssssssscssssssscssscssscssssssssscssccsssssscccscsscccssssscsssscccccsscccccccccsscsscccssscsssssssssssscccsssscccsssssssssssscccccssssscccscsssssssssscccssssscsssssss" />
  </g>
</svg>
